HIERARCHY
ROOT Root
{
	OFFSET 0.000000 0.352363 0.875427
	CHANNELS 6 Xposition Yposition Zposition Xrotation Yrotation Zrotation
	JOINT Spine1
	{
		OFFSET 0.000000 -0.400663 0.428243
		CHANNELS 3 Xrotation Yrotation Zrotation
		JOINT Spine2
		{
			OFFSET 0.000000 0.135942 1.105810
			CHANNELS 3 Xrotation Yrotation Zrotation
			JOINT Spine3
			{
				OFFSET 0.000000 0.301520 1.266560
				CHANNELS 3 Xrotation Yrotation Zrotation
				JOINT Neck
				{
					OFFSET 0.000000 -0.129153 1.732410
					CHANNELS 3 Xrotation Yrotation Zrotation
					JOINT Head
					{
						OFFSET 0.000000 0.044480 1.120100
						CHANNELS 3 Xrotation Yrotation Zrotation
						JOINT __Jaw
						{
							OFFSET 0.000000 0.126675 1.207840
							CHANNELS 3 Xrotation Yrotation Zrotation
							JOINT Jaw
							{
								OFFSET 0.000000 -0.584246 -1.183460
								CHANNELS 3 Xrotation Yrotation Zrotation
								JOINT __Tongue1
								{
									OFFSET 0.000000 -0.692024 -0.626730
									CHANNELS 3 Xrotation Yrotation Zrotation
									End Site
									{
										OFFSET 0.000000 0.708839 0.339650
									}
								}
								JOINT Tongue1
								{
									OFFSET 0.000000 -0.692024 -0.626730
									CHANNELS 3 Xrotation Yrotation Zrotation
									JOINT Tongue2
									{
										OFFSET 0.000000 0.434573 0.397120
										CHANNELS 3 Xrotation Yrotation Zrotation
										JOINT Tongue3
										{
											OFFSET 0.000000 -0.222002 -0.016090
											CHANNELS 3 Xrotation Yrotation Zrotation
											End Site
											{
												OFFSET 0.000000 -0.135904 -0.044510
											}
										}
									}
								}
							}
						}
						JOINT __Eye_L
						{
							OFFSET 0.000000 0.126675 1.207840
							CHANNELS 3 Xrotation Yrotation Zrotation
							JOINT Eye_L
							{
								OFFSET 0.279265 -1.078558 -0.863890
								CHANNELS 3 Xrotation Yrotation Zrotation
								End Site
								{
									OFFSET -0.012164 -0.380586 0.022210
								}
							}
						}
						JOINT __Eye_R
						{
							OFFSET 0.000000 0.126675 1.207840
							CHANNELS 3 Xrotation Yrotation Zrotation
							JOINT Eye_R
							{
								OFFSET -0.279265 -1.078558 -0.863890
								CHANNELS 3 Xrotation Yrotation Zrotation
								End Site
								{
									OFFSET 0.012164 -0.380586 0.022210
								}
							}
						}
					}
				}
				JOINT __Clavicle_L
				{
					OFFSET 0.000000 -0.129153 1.732410
					CHANNELS 3 Xrotation Yrotation Zrotation
					JOINT Clavicle_L
					{
						OFFSET 0.313450 -0.679586 -0.703120
						CHANNELS 3 Xrotation Yrotation Zrotation
						JOINT UpArm_L
						{
							OFFSET 1.283440 0.544581 0.163020
							CHANNELS 3 Xrotation Yrotation Zrotation
							JOINT LoArm_L
							{
								OFFSET 1.958760 0.023329 -0.275060
								CHANNELS 3 Xrotation Yrotation Zrotation
								JOINT Hand_L
								{
									OFFSET 2.301220 0.076212 -0.152140
									CHANNELS 3 Xrotation Yrotation Zrotation
									JOINT __Thumb1_L
									{
										OFFSET 0.992980 -0.198826 0.031250
										CHANNELS 3 Xrotation Yrotation Zrotation
										JOINT Thumb1_L
										{
											OFFSET -0.799370 -0.067362 -0.162500
											CHANNELS 3 Xrotation Yrotation Zrotation
											JOINT Thumb2_L
											{
												OFFSET 0.315910 -0.184280 -0.122770
												CHANNELS 3 Xrotation Yrotation Zrotation
												JOINT Thumb3_L
												{
													OFFSET 0.319720 -0.125806 -0.005850
													CHANNELS 3 Xrotation Yrotation Zrotation
													End Site
													{
														OFFSET 0.335140 -0.065732 -0.008710
													}
												}
											}
										}
									}
									JOINT __Index1_L
									{
										OFFSET 0.992980 -0.198826 0.031250
										CHANNELS 3 Xrotation Yrotation Zrotation
										JOINT Index1_L
										{
											OFFSET -0.029470 -0.180158 -0.030410
											CHANNELS 3 Xrotation Yrotation Zrotation
											JOINT Index2_L
											{
												OFFSET 0.219640 -0.044975 -0.012370
												CHANNELS 3 Xrotation Yrotation Zrotation
												JOINT Index3_L
												{
													OFFSET 0.216170 -0.022489 -0.004380
													CHANNELS 3 Xrotation Yrotation Zrotation
													End Site
													{
														OFFSET 0.238880 -0.010270 -0.004790
													}
												}
											}
										}
									}
									JOINT Middle1_L
									{
										OFFSET 0.992980 -0.198826 0.031250
										CHANNELS 3 Xrotation Yrotation Zrotation
										JOINT Middle2_L
										{
											OFFSET 0.255850 -0.017332 -0.012950
											CHANNELS 3 Xrotation Yrotation Zrotation
											JOINT Middle3_L
											{
												OFFSET 0.272930 -0.015217 -0.005410
												CHANNELS 3 Xrotation Yrotation Zrotation
												End Site
												{
													OFFSET 0.247420 -0.001119 -0.004880
												}
											}
										}
									}
									JOINT __Ring1_L
									{
										OFFSET 0.992980 -0.198826 0.031250
										CHANNELS 3 Xrotation Yrotation Zrotation
										JOINT Ring1_L
										{
											OFFSET -0.023930 0.213658 -0.033210
											CHANNELS 3 Xrotation Yrotation Zrotation
											JOINT Ring2_L
											{
												OFFSET 0.245260 -0.019858 -0.007880
												CHANNELS 3 Xrotation Yrotation Zrotation
												JOINT Ring3_L
												{
													OFFSET 0.241990 -0.010849 0.000000
													CHANNELS 3 Xrotation Yrotation Zrotation
													End Site
													{
														OFFSET 0.224930 -0.023035 0.000000
													}
												}
											}
										}
									}
									JOINT __Pinky1_L
									{
										OFFSET 0.992980 -0.198826 0.031250
										CHANNELS 3 Xrotation Yrotation Zrotation
										JOINT Pinky1_L
										{
											OFFSET -0.024700 0.402554 -0.145430
											CHANNELS 3 Xrotation Yrotation Zrotation
											JOINT Pinky2_L
											{
												OFFSET 0.196180 0.003678 -0.007890
												CHANNELS 3 Xrotation Yrotation Zrotation
												JOINT Pinky3_L
												{
													OFFSET 0.125930 -0.006331 0.000000
													CHANNELS 3 Xrotation Yrotation Zrotation
													End Site
													{
														OFFSET 0.148460 -0.013566 0.000000
													}
												}
											}
										}
									}
								}
							}
						}
					}
				}
				JOINT __Clavicle_R
				{
					OFFSET 0.000000 -0.129153 1.732410
					CHANNELS 3 Xrotation Yrotation Zrotation
					JOINT Clavicle_R
					{
						OFFSET -0.313450 -0.679586 -0.703120
						CHANNELS 3 Xrotation Yrotation Zrotation
						JOINT UpArm_R
						{
							OFFSET -1.283440 0.544581 0.163020
							CHANNELS 3 Xrotation Yrotation Zrotation
							JOINT LoArm_R
							{
								OFFSET -1.958760 0.023329 -0.275060
								CHANNELS 3 Xrotation Yrotation Zrotation
								JOINT Hand_R
								{
									OFFSET -2.301220 0.076212 -0.152140
									CHANNELS 3 Xrotation Yrotation Zrotation
									JOINT __Thumb1_R
									{
										OFFSET -0.992980 -0.198826 0.031250
										CHANNELS 3 Xrotation Yrotation Zrotation
										JOINT Thumb1_R
										{
											OFFSET 0.799370 -0.067362 -0.162500
											CHANNELS 3 Xrotation Yrotation Zrotation
											JOINT Thumb2_R
											{
												OFFSET -0.315910 -0.184280 -0.122770
												CHANNELS 3 Xrotation Yrotation Zrotation
												JOINT Thumb3_R
												{
													OFFSET -0.319720 -0.125806 -0.005850
													CHANNELS 3 Xrotation Yrotation Zrotation
													End Site
													{
														OFFSET -0.335140 -0.065732 -0.008710
													}
												}
											}
										}
									}
									JOINT __Index1_R
									{
										OFFSET -0.992980 -0.198826 0.031250
										CHANNELS 3 Xrotation Yrotation Zrotation
										JOINT Index1_R
										{
											OFFSET 0.029470 -0.180158 -0.030410
											CHANNELS 3 Xrotation Yrotation Zrotation
											JOINT Index2_R
											{
												OFFSET -0.219640 -0.044975 -0.012370
												CHANNELS 3 Xrotation Yrotation Zrotation
												JOINT Index3_R
												{
													OFFSET -0.216170 -0.022489 -0.004380
													CHANNELS 3 Xrotation Yrotation Zrotation
													End Site
													{
														OFFSET -0.238880 -0.010270 -0.004790
													}
												}
											}
										}
									}
									JOINT Middle1_R
									{
										OFFSET -0.992980 -0.198826 0.031250
										CHANNELS 3 Xrotation Yrotation Zrotation
										JOINT Middle2_R
										{
											OFFSET -0.255850 -0.017332 -0.012950
											CHANNELS 3 Xrotation Yrotation Zrotation
											JOINT Middle3_R
											{
												OFFSET -0.272930 -0.015217 -0.005410
												CHANNELS 3 Xrotation Yrotation Zrotation
												End Site
												{
													OFFSET -0.247420 -0.001119 -0.004880
												}
											}
										}
									}
									JOINT __Ring1_R
									{
										OFFSET -0.992980 -0.198826 0.031250
										CHANNELS 3 Xrotation Yrotation Zrotation
										JOINT Ring1_R
										{
											OFFSET 0.023930 0.213658 -0.033210
											CHANNELS 3 Xrotation Yrotation Zrotation
											JOINT Ring2_R
											{
												OFFSET -0.245260 -0.019858 -0.007880
												CHANNELS 3 Xrotation Yrotation Zrotation
												JOINT Ring3_R
												{
													OFFSET -0.241990 -0.010849 0.000000
													CHANNELS 3 Xrotation Yrotation Zrotation
													End Site
													{
														OFFSET -0.224930 -0.023035 0.000000
													}
												}
											}
										}
									}
									JOINT __Pinky1_R
									{
										OFFSET -0.992980 -0.198826 0.031250
										CHANNELS 3 Xrotation Yrotation Zrotation
										JOINT Pinky1_R
										{
											OFFSET 0.024700 0.402554 -0.145430
											CHANNELS 3 Xrotation Yrotation Zrotation
											JOINT Pinky2_R
											{
												OFFSET -0.196180 0.003678 -0.007890
												CHANNELS 3 Xrotation Yrotation Zrotation
												JOINT Pinky3_R
												{
													OFFSET -0.125930 -0.006331 0.000000
													CHANNELS 3 Xrotation Yrotation Zrotation
													End Site
													{
														OFFSET -0.148460 -0.013566 0.000000
													}
												}
											}
										}
									}
								}
							}
						}
					}
				}
			}
		}
	}
	JOINT Hips
	{
		OFFSET 0.000000 -0.400663 0.428243
		CHANNELS 3 Xrotation Yrotation Zrotation
		JOINT __UpLeg_L
		{
			OFFSET 0.000000 0.042830 -0.610928
			CHANNELS 3 Xrotation Yrotation Zrotation
			JOINT UpLeg_L
			{
				OFFSET 0.954010 -0.173569 -0.410570
				CHANNELS 3 Xrotation Yrotation Zrotation
				JOINT LoLeg_L
				{
					OFFSET -0.132644 0.019605 -3.833982
					CHANNELS 3 Xrotation Yrotation Zrotation
					JOINT Foot_L
					{
						OFFSET -0.087360 0.224370 -4.030640
						CHANNELS 3 Xrotation Yrotation Zrotation
						JOINT Toe_L
						{
							OFFSET -0.004162 -1.133176 -0.603280
							CHANNELS 3 Xrotation Yrotation Zrotation
							End Site
							{
								OFFSET 0.043066 -0.624320 -0.003510
							}
						}
					}
				}
			}
		}
		JOINT __UpLeg_R
		{
			OFFSET 0.000000 0.042830 -0.610928
			CHANNELS 3 Xrotation Yrotation Zrotation
			JOINT UpLeg_R
			{
				OFFSET -0.954010 -0.173569 -0.410570
				CHANNELS 3 Xrotation Yrotation Zrotation
				JOINT LoLeg_R
				{
					OFFSET 0.132645 0.019605 -3.833982
					CHANNELS 3 Xrotation Yrotation Zrotation
					JOINT Foot_R
					{
						OFFSET 0.087359 0.224370 -4.030640
						CHANNELS 3 Xrotation Yrotation Zrotation
						JOINT Toe_R
						{
							OFFSET 0.004162 -1.133176 -0.603280
							CHANNELS 3 Xrotation Yrotation Zrotation
							End Site
							{
								OFFSET -0.043066 -0.624320 -0.003510
							}
						}
					}
				}
			}
		}
	}
}
MOTION
Frames: 1
Frame Time: 0.041667
-0.369495 1.102790 8.302111 5.818179 0.560247 42.920618 0.000005 0.000001 0.000003 15.398146 2.325925 -13.456455 25.332565 -21.511291 -6.685705 -19.474148 6.046636 22.243421 20.744748 8.542727 17.274127 -0.000002 -0.000005 -0.000004 0.000003 0.000001 0.000001 -0.000009 0.000005 0.000004 -0.000005 0.000004 0.000001 -0.000002 -0.000000 0.000002 0.000002 0.000002 0.000001 0.000006 0.000004 0.000003 0.000003 -0.000004 -0.000006 0.000005 -0.000008 -0.000005 -0.000002 0.000000 -0.000002 0.000004 0.000000 0.000007 2.272265 1.052104 -11.556633 22.024097 5.068078 -25.061419 -20.862186 -9.854122 -118.584351 -5.440624 15.730183 5.519305 0.000002 -0.000004 -0.000001 -0.000003 -0.000004 0.000001 -0.000003 0.000003 -0.000002 -0.000001 -0.000000 0.000003 0.000002 -0.000002 0.000002 0.000003 -0.000002 -0.000002 -0.000001 0.000000 -0.000002 -0.000001 0.000001 0.000000 0.000002 -0.000002 -0.000007 -0.000003 0.000002 0.000004 0.000000 0.000000 -0.000001 0.000005 -0.000006 -0.000008 0.000003 -0.000001 0.000001 0.000000 0.000001 -0.000001 0.000000 -0.000001 -0.000000 -0.000001 -0.000002 -0.000004 0.000001 0.000001 -0.000004 -0.000001 0.000002 0.000007 -0.000001 0.000000 -0.000000 0.000008 0.000005 0.000002 4.221766 -14.844532 12.502925 32.449399 -39.742026 -26.291124 -14.725196 22.655932 98.445634 -5.597603 -9.403656 -4.875567 -0.000002 0.000000 0.000003 0.000002 -0.000002 0.000001 -0.000011 -0.000002 0.000000 -0.000001 0.000000 -0.000005 -0.000002 -0.000003 0.000001 -0.000002 -0.000002 0.000003 -0.000000 0.000002 -0.000004 0.000002 0.000001 0.000001 -0.000000 -0.000000 -0.000001 0.000000 0.000000 0.000001 -0.000002 -0.000001 0.000000 0.000005 -0.000002 0.000008 -0.000002 0.000000 0.000002 0.000001 0.000001 0.000000 -0.000000 0.000000 0.000000 -0.000001 -0.000000 0.000006 0.000000 0.000001 -0.000000 0.000000 0.000000 0.000000 -0.000000 -0.000001 -0.000001 0.000008 0.000001 0.000002 0.000003 -0.000009 -0.000004 30.180560 5.399407 21.828096 70.201449 1.865605 -11.222546 4.328929 -23.686473 1.400440 -0.000001 0.000005 0.000001 0.000004 -0.000002 0.000004 -36.161818 -3.058500 -2.723760 19.848081 -1.725350 2.141866 -2.711618 23.100214 -0.027625 0.000004 0.000000 -0.000003 
